<svg width="200" height="200" viewBox="0 0 200 200" fill="none" xmlns="http://www.w3.org/2000/svg">
<g clip-path="url(#clip0_2_89)">
<rect width="200" height="200" rx="100" fill="white"/>
<path d="M92.5 215.833C91.8333 191.167 110 174.444 119.167 169.167L135 238.333L103.333 262.5C100 257.222 93.1667 240.5 92.5 215.833Z" fill="white" stroke="black" stroke-width="6.66667" stroke-linejoin="round"/>
<path d="M81.065 108.871L100.833 134.167L100.833 167.5L136.667 207.5C94.2596 203.492 55.8334 167.5 81.065 108.871Z" fill="black"/>
<rect x="49.6933" y="95.914" width="11.7426" height="67.6964" rx="5.87131" transform="rotate(-43.3505 49.6933 95.914)" fill="white" stroke="black" stroke-width="6.66667"/>
<path d="M136.155 81.9007C171.616 92.5611 161.517 135.899 161.88 159.289C162.243 182.679 174.348 205.055 174.348 205.055C155.301 212.338 115.007 227.448 106.205 229.627C97.8625 222.395 98.4284 156.856 105.952 144.481C95.1355 143.877 75.6312 134.441 74.3431 112.669C73.1599 92.6693 91.8287 68.5753 136.155 81.9007Z" fill="white" stroke="black" stroke-width="6.66667"/>
<path d="M98.5101 143.231C102.045 144.688 109.28 144.667 115.151 144.16" stroke="black" stroke-width="6.66667" stroke-linecap="round" stroke-linejoin="round"/>
<path d="M149.681 168.5C183.888 165.736 170.71 180.511 181.84 190.45C192.97 200.389 229.715 214.961 229.715 214.961L83.2737 266.617L101.581 207.805C107.024 195.033 115.474 171.264 149.681 168.5Z" fill="white" stroke="black" stroke-width="6.66667" stroke-linejoin="round"/>
<path d="M85.5399 76.5704C86.4691 59.9297 120 66.6667 134.769 76.8156C148.775 80.1016 153.856 93.7394 139.943 88.7893C128.813 84.8293 129.755 97.7554 130 103.333C125.655 101.421 110.828 94.3525 107.5 94.1667C106.262 87.8949 109.572 82.5 114.661 78.1966C105 78.1966 103.549 87.8303 102.5 91.6667C99.2957 89.2621 88.7565 78.7532 85.5399 76.5704Z" fill="black"/>
<path d="M214.02 167.208C206.764 162.63 177.545 177.691 158.222 179.95C104.718 186.207 113.641 116.253 140.083 86.2933C164.212 87.6407 162.683 100.075 165.639 106.917C168.596 113.759 168.498 130.446 196.234 126.987C210.957 125.151 221.145 144.236 221.145 144.236C221.145 144.236 217.905 157.41 214.02 167.208Z" fill="black"/>
<path d="M160.741 49.0807C162.075 46.6439 161.485 44.1217 160.586 42.2707C159.684 40.4131 158.21 38.6371 156.656 37.0656C153.516 33.8908 149.314 30.8288 146.147 28.6942C144.068 27.2928 141.622 27.7237 140.096 29.1181C138.594 30.4907 137.941 32.8224 139.011 34.9998C140.024 37.0621 141.128 39.391 141.971 41.3819C142.233 41.9987 142.461 42.5651 142.651 43.0684C142.194 43.133 141.676 43.1949 141.086 43.2653C140.782 43.3016 140.458 43.3402 140.114 43.3827C138.6 43.5696 136.69 43.8339 135.053 44.4142C133.518 44.9583 131.174 46.1568 130.498 48.879C129.988 50.9313 130.49 52.7183 131.275 54.116C131.994 55.3964 133.025 56.4763 133.77 57.247C133.865 57.3444 133.955 57.4381 134.043 57.5284C134.755 58.2628 135.253 58.7767 135.634 59.3089C136.023 59.8523 136.036 60.0835 136.036 60.1457C136.036 60.2859 136.029 60.3862 136.021 60.4545C135.945 60.5081 135.813 60.5949 135.595 60.721C135.473 60.7919 135.337 60.8679 135.189 60.9507C133.97 61.6313 131.925 62.7733 130.034 65.3139C128.315 67.6229 128.039 70.3189 128.591 72.7754C129.128 75.1695 130.452 77.4271 132.116 79.3372C135.414 83.1227 140.688 86.2636 146.345 86.6013C151.325 86.8986 155.879 86.1907 159.324 84.2513C162.928 82.2229 165.25 78.844 165.25 74.4632C165.25 69.7237 162.496 66.3848 160.133 64.4835C161.144 61.9854 159.965 59.1835 157.634 58.0401C156.46 57.4641 154.901 56.6289 153.597 55.7078C153.42 55.5829 153.254 55.4604 153.099 55.3409C155.357 54.5441 158.569 53.0493 160.741 49.0807ZM135.999 60.5758C135.999 60.5755 136 60.5699 136.004 60.5599C136.001 60.5711 135.999 60.5761 135.999 60.5758Z" fill="white" stroke="black" stroke-width="6.66667" stroke-linejoin="round"/>
<path d="M163.292 68.6844C157.252 62.8188 142.151 64.9517 148.191 75.0833" stroke="black" stroke-width="6.66667" stroke-linecap="round" stroke-linejoin="round"/>
<path d="M47.2907 136.438C49.2508 136.596 51.694 136.712 53.6514 136.576C54.2816 136.532 54.7808 136.466 55.1544 136.393C55.4974 133.611 54.1235 130.527 51.2752 127.137C49.4517 124.966 49.9112 122.25 51.0422 120.628C51.632 119.782 52.5637 118.969 53.8257 118.619C55.1849 118.242 56.6111 118.498 57.7987 119.313C63.3414 123.115 68.0258 128.144 69.922 135.807C70.3587 137.572 70.0688 139.237 69.0711 140.61C68.2935 141.679 67.2057 142.359 66.6552 142.703C66.6344 142.716 66.6143 142.728 66.595 142.74C66.0377 143.09 65.7835 143.254 65.6383 143.37C65.6392 143.386 65.6402 143.4 65.6412 143.413C65.6946 143.454 65.7714 143.51 65.8788 143.584C65.9892 143.659 66.1183 143.743 66.2634 143.837C67.2317 144.466 68.9116 145.556 70.5014 147.701C73.7195 152.043 71.4979 157.17 68.7985 160.282C65.9224 163.598 61.3069 166.309 56.2964 166.609C51.9385 166.87 47.902 166.253 44.819 164.51C41.5776 162.677 39.4706 159.605 39.4706 155.63C39.4706 151.484 41.7895 148.534 43.8358 146.809L42.3127 143.702C40.5419 140.089 43.5022 136.135 47.2907 136.438ZM55.8663 136.186C55.8633 136.185 55.8333 136.196 55.7852 136.224C55.8453 136.201 55.8693 136.187 55.8663 136.186ZM65.6601 143.547C65.6602 143.547 65.6594 143.543 65.6575 143.537C65.659 143.544 65.66 143.547 65.6601 143.547Z" fill="white" stroke="black" stroke-width="6.66667" stroke-linejoin="round"/>
<path d="M41.6667 150.461C46.6625 144.917 59.152 146.933 54.1562 156.51" stroke="black" stroke-width="6.66667" stroke-linecap="round" stroke-linejoin="round"/>
<path d="M64.1106 75.5958C65.1067 75.3055 61.8699 87.991 60.1269 94.37L34.7752 100.082L41.7989 76.8663L27.9855 55.9314L46.3826 47.2144L49.6903 26.1211L68.3514 35.7145L81.6711 22.0514L91.9691 39.4226L103.43 32.4532L115.115 44.703L101.939 56.8278L92.0665 47.7681L82.0687 56.1035L71.604 44.1756L66.1733 54.8654L53.9399 52.1293L58.5846 61.2709L50.241 73.2821C55.1995 74.0734 63.1146 75.8862 64.1106 75.5958Z" fill="white" stroke="black" stroke-width="6.66667" stroke-linejoin="round"/>
<path d="M110.833 105L109.167 110.833" stroke="black" stroke-width="6.66667" stroke-linecap="round" stroke-linejoin="round"/>
<path d="M89.1667 100L90.8333 94.1667" stroke="black" stroke-width="6.66667" stroke-linecap="round" stroke-linejoin="round"/>
</g>
<rect x="4.16667" y="4.16667" width="191.667" height="191.667" rx="95.8333" stroke="black" stroke-width="8.33333"/>
<defs>
<clipPath id="clip0_2_89">
<rect width="200" height="200" rx="100" fill="white"/>
</clipPath>
</defs>
</svg>
