<svg width="257" height="197" viewBox="0 0 257 197" fill="none" xmlns="http://www.w3.org/2000/svg">
<rect width="257" height="196.953" fill="white"/>
<path d="M28.5879 155.938H33.3447C36.5534 155.938 39.0961 156.731 40.9725 158.316C42.9991 160.014 44.0124 162.491 44.0124 165.747C44.0124 169.003 43.0272 171.475 41.057 173.164C39.218 174.731 36.6942 175.514 33.4854 175.514H28.5879V155.938ZM41.1273 165.761C41.1273 160.723 38.4721 158.204 33.1617 158.204H31.4026V173.262H33.3166C37.3697 173.262 39.8373 171.799 40.7192 168.871C40.9913 167.942 41.1273 166.906 41.1273 165.761ZM47.8122 155.924H60.4642V158.373H50.6269V164.143H58.0718V166.507H50.6269V173.037H60.4642V175.514H47.8122V155.924ZM64.63 155.924H66.6566L76.888 170.377L76.7332 168.351V155.924H79.5197V175.514H77.5072L68.9646 163.509L67.2617 161.061L67.4165 163.509V175.514H64.63V155.924ZM83.2351 165.747C83.2351 164.218 83.465 162.834 83.9247 161.595C84.3844 160.357 85.0224 159.301 85.8387 158.429C87.5556 156.609 89.7839 155.699 92.5236 155.699C95.2726 155.699 97.4962 156.609 99.1944 158.429C100.921 160.277 101.784 162.717 101.784 165.747C101.784 168.778 100.921 171.208 99.1944 173.037C97.5056 174.838 95.282 175.739 92.5236 175.739C89.7746 175.739 87.5463 174.838 85.8387 173.037C84.1029 171.198 83.2351 168.768 83.2351 165.747ZM86.0498 165.733C86.0498 167.872 86.5705 169.641 87.6119 171.039C88.7847 172.596 90.4219 173.375 92.5236 173.375C94.6252 173.375 96.2577 172.596 97.4211 171.039C98.4532 169.659 98.9692 167.9 98.9692 165.761C98.9692 163.603 98.4532 161.825 97.4211 160.427C96.2577 158.851 94.6252 158.063 92.5236 158.063C90.4125 158.063 88.7753 158.851 87.6119 160.427C86.5705 161.825 86.0498 163.594 86.0498 165.733ZM105.471 155.924H107.498L117.729 170.377L117.574 168.351V155.924H120.361V175.514H118.348L109.806 163.509L108.103 161.061L108.258 163.509V175.514H105.471V155.924ZM124.076 165.747C124.076 164.218 124.306 162.834 124.766 161.595C125.226 160.357 125.864 159.301 126.68 158.429C128.397 156.609 130.625 155.699 133.365 155.699C136.114 155.699 138.337 156.609 140.036 158.429C141.762 160.277 142.625 162.717 142.625 165.747C142.625 168.778 141.762 171.208 140.036 173.037C138.347 174.838 136.123 175.739 133.365 175.739C130.616 175.739 128.387 174.838 126.68 173.037C124.944 171.198 124.076 168.768 124.076 165.747ZM126.891 165.733C126.891 167.872 127.412 169.641 128.453 171.039C129.626 172.596 131.263 173.375 133.365 173.375C135.466 173.375 137.099 172.596 138.262 171.039C139.294 169.659 139.81 167.9 139.81 165.761C139.81 163.603 139.294 161.825 138.262 160.427C137.099 158.851 135.466 158.063 133.365 158.063C131.254 158.063 129.616 158.851 128.453 160.427C127.412 161.825 126.891 163.594 126.891 165.733ZM146.2 155.924H148.001L154.982 163.946L161.934 155.924H163.735V175.514H160.921V160.596L160.09 161.722L154.982 167.675L149.873 161.736L149.014 160.61V175.514H146.2V155.924ZM167.971 155.924H170.786V175.514H167.971V155.924ZM188.462 175.401C187.533 175.57 186.281 175.655 184.705 175.655C183.138 175.655 181.721 175.439 180.454 175.007C179.197 174.576 178.114 173.938 177.204 173.093C175.252 171.283 174.276 168.759 174.276 165.522C174.276 163.411 174.778 161.581 175.782 160.033C177.143 157.941 179.23 156.609 182.045 156.036C182.908 155.867 183.935 155.783 185.127 155.783C186.328 155.783 187.29 155.849 188.012 155.98V158.668C187.355 158.462 186.337 158.358 184.958 158.358C183.588 158.358 182.425 158.527 181.468 158.865C180.511 159.203 179.718 159.686 179.089 160.315C177.832 161.544 177.204 163.279 177.204 165.522C177.204 167.783 177.823 169.575 179.061 170.898C180.403 172.324 182.331 173.037 184.845 173.037C186.318 173.037 187.524 172.925 188.462 172.699V175.401ZM191.347 165.747C191.347 164.218 191.577 162.834 192.037 161.595C192.497 160.357 193.135 159.301 193.951 158.429C195.668 156.609 197.896 155.699 200.636 155.699C203.385 155.699 205.608 156.609 207.307 158.429C209.033 160.277 209.896 162.717 209.896 165.747C209.896 168.778 209.033 171.208 207.307 173.037C205.618 174.838 203.394 175.739 200.636 175.739C197.887 175.739 195.659 174.838 193.951 173.037C192.215 171.198 191.347 168.768 191.347 165.747ZM194.162 165.733C194.162 167.872 194.683 169.641 195.724 171.039C196.897 172.596 198.534 173.375 200.636 173.375C202.737 173.375 204.37 172.596 205.533 171.039C206.565 169.659 207.081 167.9 207.081 165.761C207.081 163.603 206.565 161.825 205.533 160.427C204.37 158.851 202.737 158.063 200.636 158.063C198.525 158.063 196.888 158.851 195.724 160.427C194.683 161.825 194.162 163.594 194.162 165.733ZM213.583 155.924H215.61L225.841 170.377L225.687 168.351V155.924H228.473V175.514H226.461L217.918 163.509L216.215 161.061L216.37 163.509V175.514H213.583V155.924Z" fill="black"/>
<path d="M153.174 66.977C155.379 62.9484 154.293 58.7352 152.657 55.5708C151.001 52.3658 148.311 49.2383 145.428 46.4199C139.611 40.734 131.929 35.2827 126.486 31.6854C119.987 27.3909 113.191 34.699 116.243 40.8395C118.073 44.5216 120.209 48.9603 121.879 52.8251C122.698 54.7208 123.376 56.4137 123.847 57.7773C122.739 57.9758 121.408 58.1345 119.821 58.3237C119.297 58.3863 118.744 58.4522 118.162 58.5241C115.509 58.8513 112.277 59.3034 109.536 60.2751C106.942 61.1946 103.281 63.1213 102.227 67.3596C101.414 70.6324 102.206 73.4871 103.484 75.7628C104.668 77.8694 106.379 79.6691 107.688 81.0229C107.853 81.1939 108.014 81.3592 108.169 81.5196C109.4 82.7887 110.327 83.7444 111.039 84.7398C111.786 85.7828 111.932 86.393 111.932 86.7946C111.932 87.4937 111.844 87.7993 111.804 87.8958C111.79 87.913 111.739 87.9678 111.616 88.0637C111.425 88.2117 111.142 88.3978 110.654 88.6809C110.434 88.8087 110.192 88.9443 109.93 89.0906C107.808 90.2772 104.414 92.1756 101.246 96.4311C98.4553 100.179 97.9893 104.57 98.9014 108.633C99.7933 112.607 102.005 116.402 104.834 119.649C110.448 126.094 119.419 131.42 128.981 131.99C137.568 132.503 145.305 131.272 151.093 128.015C157.108 124.629 160.925 119.044 160.925 111.805C160.925 103.548 155.886 97.8144 151.743 94.68L151.97 94.2528C153.965 90.5007 152.29 86.0073 148.662 84.2603C146.654 83.2932 143.759 81.7826 141.278 80.0686C140.244 79.3537 139.363 78.6585 138.677 78.0113C138.918 77.9332 139.184 77.8464 139.487 77.7455C143.357 76.4573 149.265 74.1186 153.174 66.977ZM111.785 87.9317C111.784 87.9305 111.79 87.9179 111.804 87.8974C111.793 87.9226 111.786 87.9329 111.785 87.9317Z" fill="white" stroke="black" stroke-width="9.60748" stroke-linejoin="round"/>
<path d="M158.523 101.71C147.972 91.464 121.595 95.1899 132.146 112.888" stroke="black" stroke-width="9.60748" stroke-linecap="round" stroke-linejoin="round"/>
</svg>
